<svg width="291" height="94" viewBox="0 0 291 94" fill="none" xmlns="http://www.w3.org/2000/svg">
<path d="M289.101 82.5313C289.101 87.5028 285.4 91.5299 280.822 91.5299H9.90444C5.32901 91.5299 1.61511 87.5028 1.61511 82.5313V10.7706C1.61511 5.80139 5.32901 1.76025 9.90444 1.76025H280.82C285.4 1.76025 289.099 5.80139 289.099 10.7706L289.101 82.5313Z" fill="#014700"/>
<path d="M279.949 1.86877C284.934 1.86877 288.99 6.26215 288.99 11.6613V81.6288C288.99 87.0279 284.934 91.4213 279.949 91.4213H10.7673C5.78202 91.4213 1.72545 87.0279 1.72545 81.6288V11.6613C1.72545 6.26215 5.78202 1.86877 10.7673 1.86877H279.949ZM279.949 6.10352e-05H10.7673C4.84796 6.10352e-05 0 5.25054 0 11.6613V81.6288C0 88.0396 4.84796 93.29 10.7673 93.29H279.949C285.868 93.29 290.716 88.0396 290.716 81.6288V11.6613C290.716 5.25054 285.868 6.10352e-05 279.949 6.10352e-05Z" fill="#84DB52"/>
<path d="M64.8792 46.1411C64.8167 38.6243 70.5621 34.9673 70.8249 34.7971C67.571 29.6591 62.5276 28.9571 60.7553 28.9012C56.5195 28.4184 52.4107 31.6462 50.2529 31.6462C48.0521 31.6462 44.7293 28.9478 41.1482 29.0271C36.5398 29.1041 32.2286 31.9937 29.8641 36.481C24.9844 45.6304 28.6237 59.0758 33.2988 66.4714C35.6375 70.0933 38.3702 74.1375 41.9471 73.9952C45.4464 73.8389 46.7536 71.579 50.9765 71.579C55.1607 71.579 56.3881 73.9952 60.0361 73.9042C63.7917 73.8389 66.1562 70.2659 68.413 66.6113C71.1156 62.4599 72.2009 58.3715 72.244 58.1616C72.1557 58.1289 64.9502 55.1506 64.8792 46.1411Z" fill="white"/>
<path d="M57.9881 24.0361C59.8703 21.4869 61.158 18.0189 60.8005 14.4995C58.0764 14.6301 54.6697 16.5402 52.7079 19.0334C50.9722 21.2304 49.4217 24.8314 49.8223 28.2178C52.8823 28.465 56.0242 26.5456 57.9881 24.0361Z" fill="white"/>
<path d="M105.627 23.3432C105.627 26.0883 104.867 28.1546 103.349 29.5423C101.942 30.8227 99.9439 31.4641 97.3554 31.4641C96.072 31.4641 94.9737 31.4035 94.0542 31.2822V16.2835C95.2537 16.0736 96.5457 15.9663 97.9412 15.9663C100.407 15.9663 102.265 16.547 103.519 17.7085C104.923 19.0216 105.627 20.899 105.627 23.3432ZM103.247 23.4109C103.247 21.6313 102.812 20.267 101.942 19.3154C101.072 18.3662 99.8018 17.8904 98.1285 17.8904C97.4179 17.8904 96.8128 17.9417 96.311 18.049V29.4514C96.5888 29.498 97.097 29.519 97.8357 29.519C99.5627 29.519 100.896 28.9989 101.835 27.9587C102.774 26.9186 103.247 25.4026 103.247 23.4109Z" fill="white"/>
<path d="M118.244 25.7409C118.244 27.4318 117.798 28.8171 116.907 29.904C115.972 31.0211 114.734 31.5785 113.188 31.5785C111.697 31.5785 110.511 31.0444 109.626 29.9716C108.743 28.9011 108.301 27.5507 108.301 25.9228C108.301 24.2203 108.756 22.8232 109.669 21.7387C110.582 20.6543 111.809 20.1108 113.356 20.1108C114.846 20.1108 116.043 20.6449 116.95 21.7154C117.811 22.7556 118.244 24.099 118.244 25.7409ZM115.903 25.8202C115.903 24.8057 115.701 23.9357 115.298 23.2104C114.824 22.3335 114.15 21.895 113.274 21.895C112.367 21.895 111.678 22.3335 111.204 23.2104C110.799 23.9357 110.599 24.8197 110.599 25.8645C110.599 26.879 110.802 27.749 111.204 28.4743C111.693 29.3512 112.374 29.7897 113.252 29.7897C114.114 29.7897 114.79 29.3442 115.276 28.451C115.694 27.7116 115.903 26.8347 115.903 25.8202Z" fill="white"/>
<path d="M135.161 20.3345L131.985 31.3287H129.918L128.602 26.5546C128.268 25.3628 127.997 24.178 127.786 23.0026H127.745C127.549 24.2107 127.278 25.3931 126.929 26.5546L125.531 31.3287H123.44L120.453 20.3345H122.773L123.92 25.561C124.198 26.7971 124.426 27.9749 124.61 29.0897H124.65C124.818 28.1708 125.096 27 125.488 25.5844L126.929 20.3368H128.768L130.148 25.4724C130.482 26.7248 130.753 27.9306 130.962 29.0921H131.025C131.178 27.9609 131.408 26.7552 131.714 25.4724L132.946 20.3368H135.161V20.3345Z" fill="white"/>
<path d="M146.861 31.3291H144.604V25.032C144.604 23.0916 143.924 22.1214 142.559 22.1214C141.889 22.1214 141.348 22.3873 140.928 22.9214C140.513 23.4554 140.302 24.0852 140.302 24.8058V31.3268H138.045V23.4764C138.045 22.5109 138.017 21.4637 137.963 20.3302H139.946L140.052 22.0491H140.114C140.377 21.515 140.769 21.0742 141.284 20.7221C141.895 20.3116 142.58 20.104 143.33 20.104C144.277 20.104 145.065 20.4352 145.692 21.0999C146.471 21.9138 146.861 23.1289 146.861 24.7429V31.3291Z" fill="white"/>
<path d="M153.085 31.3289H150.83V15.29H153.085V31.3289Z" fill="white"/>
<path d="M166.371 25.7409C166.371 27.4318 165.926 28.8171 165.034 29.904C164.1 31.0211 162.859 31.5785 161.315 31.5785C159.823 31.5785 158.636 31.0444 157.753 29.9716C156.87 28.9011 156.429 27.5507 156.429 25.9228C156.429 24.2203 156.883 22.8232 157.796 21.7387C158.709 20.6543 159.937 20.1108 161.481 20.1108C162.973 20.1108 164.168 20.6449 165.077 21.7154C165.939 22.7556 166.371 24.099 166.371 25.7409ZM164.028 25.8202C164.028 24.8057 163.826 23.9357 163.423 23.2104C162.952 22.3335 162.276 21.895 161.401 21.895C160.493 21.895 159.803 22.3335 159.332 23.2104C158.927 23.9357 158.727 24.8197 158.727 25.8645C158.727 26.879 158.929 27.749 159.332 28.4743C159.821 29.3512 160.501 29.7897 161.38 29.7897C162.241 29.7897 162.915 29.3442 163.402 28.451C163.822 27.7116 164.028 26.8347 164.028 25.8202Z" fill="white"/>
<path d="M177.294 31.329H175.267L175.099 30.0625H175.037C174.343 31.0724 173.355 31.5785 172.072 31.5785C171.113 31.5785 170.338 31.245 169.754 30.5826C169.225 29.9809 168.96 29.2323 168.96 28.3437C168.96 27.0003 169.477 25.9764 170.517 25.2674C171.555 24.5584 173.015 24.2109 174.895 24.2273V24.022C174.895 22.5737 174.193 21.8507 172.787 21.8507C171.785 21.8507 170.902 22.1236 170.14 22.6647L169.681 21.0601C170.624 20.428 171.789 20.1108 173.163 20.1108C175.816 20.1108 177.147 21.6268 177.147 24.6587V28.7075C177.147 29.806 177.197 30.6806 177.294 31.329ZM174.951 27.5507V25.8552C172.461 25.8085 171.217 26.5478 171.217 28.0708C171.217 28.6445 171.359 29.0737 171.649 29.3605C171.94 29.6474 172.311 29.7897 172.752 29.7897C173.247 29.7897 173.71 29.6194 174.132 29.2812C174.557 28.9407 174.817 28.5093 174.914 27.9798C174.938 27.8609 174.951 27.7163 174.951 27.5507Z" fill="white"/>
<path d="M190.118 31.3289H188.115L188.009 29.5634H187.947C187.307 30.9068 186.218 31.5785 184.687 31.5785C183.463 31.5785 182.445 31.0584 181.637 30.0182C180.83 28.978 180.427 27.6276 180.427 25.9694C180.427 24.1899 180.864 22.7486 181.743 21.6477C182.593 20.6216 183.636 20.1085 184.876 20.1085C186.239 20.1085 187.193 20.6052 187.736 21.6011H187.779V15.29H190.038V28.367C190.038 29.4375 190.064 30.424 190.118 31.3289ZM187.779 26.6924V24.8593C187.779 24.5421 187.757 24.2855 187.716 24.0896C187.589 23.5019 187.316 23.0075 186.9 22.6086C186.48 22.2098 185.974 22.0093 185.391 22.0093C184.549 22.0093 183.89 22.3707 183.405 23.0961C182.925 23.8214 182.682 24.7473 182.682 25.8785C182.682 26.9653 182.912 27.8469 183.375 28.5256C183.864 29.2486 184.523 29.6101 185.348 29.6101C186.088 29.6101 186.681 29.3092 187.131 28.7051C187.566 28.1477 187.779 27.476 187.779 26.6924Z" fill="white"/>
<path d="M209.419 25.7409C209.419 27.4318 208.973 28.8171 208.082 29.904C207.147 31.0211 205.911 31.5785 204.363 31.5785C202.875 31.5785 201.688 31.0444 200.801 29.9716C199.918 28.9011 199.476 27.5507 199.476 25.9228C199.476 24.2203 199.931 22.8232 200.844 21.7387C201.757 20.6543 202.984 20.1108 204.533 20.1108C206.021 20.1108 207.22 20.6449 208.125 21.7154C208.986 22.7556 209.419 24.099 209.419 25.7409ZM207.08 25.8202C207.08 24.8057 206.878 23.9357 206.475 23.2104C205.999 22.3335 205.327 21.895 204.449 21.895C203.544 21.895 202.855 22.3335 202.379 23.2104C201.974 23.9357 201.774 24.8197 201.774 25.8645C201.774 26.879 201.977 27.749 202.379 28.4743C202.868 29.3512 203.549 29.7897 204.427 29.7897C205.289 29.7897 205.967 29.3442 206.454 28.451C206.869 27.7116 207.08 26.8347 207.08 25.8202Z" fill="white"/>
<path d="M221.554 31.3291H219.299V25.032C219.299 23.0916 218.618 22.1214 217.251 22.1214C216.581 22.1214 216.041 22.3873 215.623 22.9214C215.205 23.4554 214.996 24.0852 214.996 24.8058V31.3268H212.737V23.4764C212.737 22.5109 212.712 21.4637 212.658 20.3302H214.639L214.744 22.0491H214.807C215.072 21.515 215.464 21.0742 215.976 20.7221C216.59 20.3116 217.273 20.104 218.024 20.104C218.969 20.104 219.758 20.4352 220.384 21.0999C221.166 21.9138 221.554 23.1289 221.554 24.7429V31.3291Z" fill="white"/>
<path d="M236.742 22.1656H234.257V27.5064C234.257 28.8638 234.698 29.5425 235.573 29.5425C235.977 29.5425 236.313 29.5051 236.578 29.4282L236.636 31.2823C236.191 31.4642 235.605 31.5552 234.883 31.5552C233.992 31.5552 233.298 31.2613 232.797 30.6736C232.293 30.0859 232.043 29.097 232.043 27.7093V22.1656H230.559V20.3347H232.043V18.3197L234.255 17.5967V20.3324H236.74V22.1656H236.742Z" fill="white"/>
<path d="M248.689 31.3289H246.43V25.0785C246.43 23.1077 245.75 22.1212 244.387 22.1212C243.34 22.1212 242.625 22.6926 242.233 23.8354C242.166 24.0756 242.128 24.3695 242.128 24.7147V31.3266H239.873V15.29H242.128V21.916H242.171C242.881 20.7102 243.9 20.1085 245.22 20.1085C246.155 20.1085 246.928 20.4396 247.541 21.1043C248.306 21.9323 248.689 23.1637 248.689 24.7916V31.3289Z" fill="white"/>
<path d="M261.013 25.3117C261.013 25.7502 260.983 26.1187 260.929 26.4196H254.161C254.191 27.5064 254.514 28.3343 255.141 28.9081C255.714 29.4212 256.452 29.6777 257.357 29.6777C258.358 29.6777 259.271 29.5051 260.094 29.1576L260.447 30.8555C259.484 31.308 258.352 31.5342 257.04 31.5342C255.468 31.5342 254.23 31.0328 253.334 30.0299C252.434 29.027 251.988 27.6813 251.988 25.9928C251.988 24.3345 252.404 22.9538 253.242 21.853C254.116 20.6776 255.298 20.0898 256.79 20.0898C258.251 20.0898 259.36 20.6776 260.109 21.853C260.714 22.7859 261.013 23.9404 261.013 25.3117ZM258.86 24.6797C258.877 23.9544 258.729 23.3293 258.423 22.8023C258.031 22.1236 257.434 21.7831 256.627 21.7831C255.89 21.7831 255.29 22.1142 254.831 22.7789C254.456 23.3083 254.234 23.9404 254.161 24.6797H258.86Z" fill="white"/>
<path d="M115.522 73.4751H110.631L107.953 64.3583H98.641L96.0892 73.4751H91.3279L100.553 42.4375H106.251L115.522 73.4751ZM107.145 60.5334L104.722 52.4289C104.466 51.6009 103.986 49.6511 103.277 46.5819H103.191C102.909 47.902 102.455 49.8517 101.83 52.4289L99.4507 60.5334H107.145Z" fill="white"/>
<path d="M139.246 62.0101C139.246 65.8164 138.297 68.825 136.397 71.0336C134.696 72.9997 132.584 73.9816 130.062 73.9816C127.34 73.9816 125.385 72.9227 124.194 70.805H124.108V82.5946H119.517V58.4628C119.517 56.0699 119.458 53.614 119.346 51.0952H123.384L123.64 54.6425H123.727C125.258 51.9698 127.581 50.6357 130.699 50.6357C133.137 50.6357 135.172 51.6783 136.8 53.7656C138.432 55.8553 139.246 58.6027 139.246 62.0101ZM134.569 62.192C134.569 60.0137 134.117 58.2179 133.208 56.8045C132.215 55.3306 130.882 54.5936 129.211 54.5936C128.079 54.5936 127.049 55.004 126.13 55.8133C125.208 56.6296 124.605 57.6955 124.323 59.0155C124.181 59.6312 124.11 60.135 124.11 60.5315V64.2631C124.11 65.891 124.571 67.2647 125.492 68.3865C126.414 69.5083 127.611 70.068 129.084 70.068C130.814 70.068 132.159 69.345 133.122 67.9037C134.087 66.4601 134.569 64.5569 134.569 62.192Z" fill="white"/>
<path d="M163.014 62.0101C163.014 65.8164 162.064 68.825 160.163 71.0336C158.464 72.9997 156.351 73.9816 153.83 73.9816C151.108 73.9816 149.152 72.9227 147.964 70.805H147.877V82.5946H143.286V58.4628C143.286 56.0699 143.228 53.614 143.116 51.0952H147.154L147.41 54.6425H147.496C149.025 51.9698 151.349 50.6357 154.469 50.6357C156.905 50.6357 158.94 51.6783 160.572 53.7656C162.198 55.8553 163.014 58.6027 163.014 62.0101ZM158.337 62.192C158.337 60.0137 157.882 58.2179 156.974 56.8045C155.981 55.3306 154.652 54.5936 152.979 54.5936C151.844 54.5936 150.817 55.004 149.895 55.8133C148.974 56.6296 148.373 57.6955 148.091 59.0155C147.951 59.6312 147.877 60.135 147.877 60.5315V64.2631C147.877 65.891 148.338 67.2647 149.256 68.3865C150.177 69.506 151.375 70.068 152.852 70.068C154.581 70.068 155.927 69.345 156.89 67.9037C157.854 66.4601 158.337 64.5569 158.337 62.192Z" fill="white"/>
<path d="M189.588 64.7713C189.588 67.4114 188.741 69.5594 187.042 71.2177C185.175 73.0298 182.576 73.9347 179.236 73.9347C176.152 73.9347 173.68 73.291 171.809 72.0013L172.873 67.8569C174.888 69.1769 177.1 69.8393 179.51 69.8393C181.239 69.8393 182.585 69.4148 183.552 68.5706C184.514 67.7263 184.994 66.5928 184.994 65.1795C184.994 63.9201 184.598 62.8589 183.804 61.9983C183.013 61.1377 181.693 60.3377 179.85 59.5984C174.832 57.5717 172.326 54.6027 172.326 50.6985C172.326 48.147 173.204 46.055 174.964 44.4271C176.717 42.7969 179.055 41.9829 181.98 41.9829C184.587 41.9829 186.754 42.475 188.483 43.4569L187.335 47.5103C185.72 46.5588 183.894 46.083 181.85 46.083C180.235 46.083 178.973 46.5145 178.069 47.3727C177.304 48.1401 176.921 49.0753 176.921 50.1831C176.921 51.4099 177.358 52.4244 178.237 53.222C179.001 53.959 180.39 54.7566 182.406 55.6172C184.872 56.6924 186.683 57.9495 187.848 59.3908C189.008 60.8275 189.588 62.6257 189.588 64.7713Z" fill="white"/>
<path d="M204.767 54.8266H199.707V65.6925C199.707 68.4562 200.598 69.8369 202.386 69.8369C203.206 69.8369 203.887 69.76 204.425 69.606L204.552 73.3819C203.648 73.7481 202.457 73.9324 200.982 73.9324C199.168 73.9324 197.751 73.333 196.729 72.1365C195.71 70.9377 195.197 68.9273 195.197 66.103V54.8219H192.183V51.0903H195.197V46.9925L199.707 45.5186V51.0903H204.767V54.8266Z" fill="white"/>
<path d="M227.6 62.1007C227.6 65.5408 226.692 68.3651 224.878 70.5738C222.977 72.8477 220.453 73.9812 217.307 73.9812C214.275 73.9812 211.861 72.892 210.061 70.7137C208.26 68.5354 207.36 65.7857 207.36 62.4715C207.36 59.0035 208.286 56.1628 210.145 53.9542C211.999 51.7432 214.501 50.6377 217.647 50.6377C220.679 50.6377 223.119 51.7269 224.96 53.9075C226.722 56.0229 227.6 58.7539 227.6 62.1007ZM222.837 62.2616C222.837 60.1976 222.43 58.4274 221.605 56.9511C220.643 55.1646 219.267 54.2737 217.483 54.2737C215.638 54.2737 214.236 55.1669 213.273 56.9511C212.449 58.4297 212.042 60.2279 212.042 62.3549C212.042 64.419 212.449 66.1891 213.273 67.6631C214.266 69.4496 215.653 70.3405 217.443 70.3405C219.195 70.3405 220.572 69.431 221.564 67.6165C222.411 66.1122 222.837 64.3233 222.837 62.2616Z" fill="white"/>
<path d="M242.524 55.4682C242.07 55.3772 241.585 55.3306 241.077 55.3306C239.462 55.3306 238.213 55.9906 237.334 57.313C236.57 58.4791 236.186 59.9531 236.186 61.7326V73.4755H231.597L231.64 58.1433C231.64 55.5638 231.582 53.2152 231.468 51.0975H235.467L235.635 55.3795H235.762C236.247 53.9079 237.011 52.7231 238.058 51.8345C239.08 51.0346 240.185 50.6357 241.376 50.6357C241.8 50.6357 242.184 50.6684 242.524 50.7267V55.4682Z" fill="white"/>
<path d="M263.057 61.2265C263.057 62.1174 263.003 62.8684 262.889 63.4818H249.116C249.169 65.6927 249.835 67.3836 251.114 68.5497C252.275 69.5923 253.776 70.1147 255.619 70.1147C257.658 70.1147 259.519 69.7625 261.192 69.0558L261.911 72.5076C259.956 73.4311 257.648 73.8906 254.984 73.8906C251.779 73.8906 249.264 72.8691 247.434 70.8283C245.608 68.7876 244.692 66.0472 244.692 62.6095C244.692 59.2347 245.543 56.4244 247.246 54.1831C249.029 51.7902 251.439 50.5938 254.471 50.5938C257.449 50.5938 259.704 51.7902 261.235 54.1831C262.448 56.0839 263.057 58.4348 263.057 61.2265ZM258.679 59.9367C258.709 58.4628 258.41 57.1893 257.788 56.1142C256.993 54.7312 255.772 54.0408 254.129 54.0408C252.628 54.0408 251.407 54.7148 250.474 56.0675C249.71 57.1427 249.256 58.4324 249.116 59.9344H258.679V59.9367Z" fill="white"/>
</svg>
